<?xml version="1.0" standalone="no"?>
<!DOCTYPE svg PUBLIC "-//W3C//DTD SVG 20010904//EN"
 "http://www.w3.org/TR/2001/REC-SVG-20010904/DTD/svg10.dtd">
<svg version="1.0" xmlns="http://www.w3.org/2000/svg"
 width="1230.000000pt" height="1280.000000pt" viewBox="0 0 1230.000000 1280.000000"
 preserveAspectRatio="xMidYMid meet">
<metadata>
Created by potrace 1.15, written by Peter Selinger 2001-2017
</metadata>
<g transform="translate(0.000000,1280.000000) scale(0.100000,-0.100000)"
fill="#000000" stroke="none">
<path d="M6 12784 c-3 -9 -6 -2889 -6 -6400 l0 -6384 6150 0 6150 0 0 6400 0
6400 -6144 0 c-5593 0 -6144 -1 -6150 -16z m7222 -446 c26 -54 30 -81 41 -253
7 -101 15 -155 30 -195 27 -71 26 -106 -4 -172 -26 -55 -32 -88 -16 -88 10 0
14 10 25 63 8 33 24 35 32 3 3 -14 -4 -47 -20 -84 -14 -34 -26 -81 -26 -104 0
-35 -6 -49 -33 -75 -17 -17 -50 -64 -71 -105 -21 -40 -48 -83 -59 -96 -19 -20
-19 -24 -5 -38 13 -13 28 -15 82 -9 70 8 81 25 16 25 -41 0 -54 9 -44 33 7 20
61 7 155 -38 63 -30 81 -35 119 -30 38 5 57 1 125 -32 74 -35 87 -38 169 -38
86 0 90 -1 120 -31 24 -24 51 -36 124 -54 51 -12 109 -33 128 -46 23 -16 49
-24 77 -24 23 0 83 -7 132 -16 50 -9 114 -14 143 -12 58 5 73 -6 87 -63 5 -21
17 -29 65 -43 33 -10 101 -43 152 -73 134 -79 200 -111 265 -128 98 -26 128
-15 85 31 -18 19 -18 20 26 59 47 42 85 64 115 65 20 0 24 -48 6 -81 -9 -19
-9 -19 10 -10 30 17 44 13 38 -9 -7 -27 17 -26 44 1 26 26 40 15 64 -46 16
-44 18 -45 62 -45 42 0 51 -5 146 -89 118 -102 169 -156 192 -203 9 -18 61
-76 114 -128 109 -106 121 -131 121 -243 l0 -66 33 -3 c30 -3 32 -5 32 -43 l0
-40 -47 -3 c-45 -3 -48 -5 -48 -32 0 -35 38 -68 90 -76 49 -8 51 -9 93 -76 73
-114 112 -207 147 -342 29 -114 27 -150 -10 -177 -40 -30 -43 -44 -14 -78 38
-46 63 -112 70 -187 6 -65 5 -72 -20 -101 -19 -23 -26 -42 -26 -75 0 -37 5
-49 35 -78 19 -19 35 -41 35 -49 1 -12 6 -10 20 8 22 26 27 114 11 184 -10 43
-3 47 23 11 17 -24 18 -42 13 -253 -6 -242 -18 -340 -82 -671 -20 -102 -47
-252 -60 -335 -24 -148 -50 -423 -41 -432 3 -3 34 5 71 17 48 16 73 31 93 56
31 39 47 42 64 14 21 -33 46 -26 44 13 -1 30 1 32 29 28 33 -3 100 -35 110
-51 13 -21 26 -9 23 23 -3 28 0 32 25 35 33 4 36 29 5 41 -20 7 -17 10 25 26
84 32 190 -3 280 -92 l48 -47 -33 -28 c-51 -43 -92 -59 -128 -52 -28 6 -32 4
-28 -12 2 -13 14 -21 38 -24 27 -4 35 -10 35 -25 0 -15 -9 -21 -35 -26 l-35
-6 30 -11 c70 -28 82 -56 42 -96 -19 -18 -40 -26 -91 -31 -36 -4 -66 -11 -66
-16 0 -14 40 -35 123 -65 70 -26 77 -31 77 -55 0 -34 -17 -47 -80 -64 -63 -17
-93 -41 -87 -71 4 -22 3 -22 -187 -26 -159 -4 -201 -8 -248 -25 l-58 -20 -11
34 c-7 22 -17 33 -30 33 -26 0 -24 8 7 32 36 29 30 64 -11 59 -23 -2 -109 -41
-154 -69 -3 -1 1 -8 7 -14 9 -9 22 -9 54 -1 47 13 60 10 51 -12 -4 -11 -21
-15 -63 -15 -54 0 -59 -2 -84 -35 -24 -31 -33 -35 -70 -35 -42 0 -45 -2 -60
-39 -17 -44 -46 -163 -46 -191 0 -10 9 -22 20 -25 11 -4 18 -11 15 -16 -8 -12
-49 -11 -62 2 -7 7 -16 0 -31 -25 -12 -20 -26 -36 -32 -36 -5 0 -10 -22 -10
-49 0 -41 -10 -71 -58 -164 -36 -70 -71 -159 -92 -231 -28 -101 -37 -119 -60
-131 -30 -16 -47 -65 -75 -220 -14 -74 -24 -100 -56 -148 -49 -70 -100 -179
-128 -272 -16 -56 -27 -74 -50 -88 -31 -18 -81 -106 -81 -143 0 -18 -11 -28
-43 -42 -49 -22 -69 -47 -117 -142 -18 -36 -43 -79 -55 -96 -16 -21 -20 -35
-14 -45 5 -8 23 -56 40 -107 35 -104 71 -155 124 -172 29 -10 34 -17 40 -53
14 -80 68 -153 132 -178 17 -6 23 -16 23 -41 0 -18 12 -55 25 -83 14 -27 25
-56 25 -62 0 -17 246 -402 341 -534 56 -78 79 -118 84 -150 12 -75 35 -130 97
-240 52 -91 67 -110 108 -134 42 -24 52 -38 76 -94 28 -65 100 -202 188 -356
27 -47 46 -93 46 -111 0 -51 29 -133 90 -254 56 -109 90 -202 90 -242 0 -15
-5 -17 -27 -12 -22 6 -31 1 -54 -27 -22 -27 -30 -31 -40 -22 -9 9 -17 8 -33
-7 -12 -10 -38 -33 -59 -52 -25 -22 -39 -43 -40 -62 -2 -24 -7 -29 -28 -30
-14 -1 -46 -19 -72 -41 -42 -37 -45 -41 -32 -62 13 -20 11 -25 -33 -72 -53
-56 -131 -96 -207 -105 -49 -6 -51 -5 -74 29 -13 19 -47 91 -77 160 -57 133
-74 165 -111 206 -22 24 -22 29 -13 80 30 154 -5 308 -65 285 -19 -7 -19 -29
1 -67 21 -42 11 -48 -21 -13 -39 43 -65 103 -65 152 0 36 -4 44 -26 52 l-25
10 3 110 c3 126 -9 149 -24 46 -4 -27 -48 40 -76 116 -12 31 -42 85 -67 118
-24 34 -49 79 -55 101 -10 36 -14 39 -45 39 -31 0 -37 5 -59 48 -13 26 -41 72
-61 102 -46 68 -95 168 -95 195 0 11 -16 44 -35 72 -19 29 -35 57 -35 63 0 5
-17 10 -39 10 -35 0 -41 4 -73 53 -19 28 -63 104 -98 167 -88 159 -119 207
-185 281 -72 79 -113 143 -121 185 -3 18 -17 42 -30 55 -13 12 -24 31 -24 42
0 13 -5 17 -16 13 -20 -8 -52 9 -86 47 l-28 29 -42 -25 c-41 -23 -163 -156
-189 -205 -10 -18 -10 -30 -1 -54 15 -40 9 -48 -39 -48 -44 0 -48 8 -19 35 11
10 20 22 20 26 0 12 -99 -26 -220 -84 -82 -39 -100 -51 -81 -55 13 -2 43 1 67
7 51 13 117 14 110 2 -7 -11 -37 -17 -231 -46 -150 -22 -240 -47 -292 -81 -18
-11 -30 -12 -66 -3 -78 21 -147 -9 -147 -63 0 -14 -8 -18 -35 -18 -19 0 -66
-5 -104 -12 -52 -9 -76 -9 -94 -1 -21 10 -32 8 -64 -8 -29 -16 -49 -19 -85
-14 -44 5 -58 0 -220 -81 -95 -47 -215 -114 -266 -147 -81 -54 -92 -64 -87
-84 6 -25 -5 -51 -31 -77 -30 -31 -6 -39 97 -33 55 3 99 3 99 -1 -1 -43 -101
-66 -185 -44 -20 5 -46 3 -80 -9 l-50 -16 40 -8 c22 -3 44 -8 50 -9 5 -1 -12
-11 -39 -21 -34 -13 -53 -16 -64 -9 -11 7 -27 6 -51 -2 -20 -7 -52 -13 -71
-14 -44 0 -63 -12 -55 -33 9 -21 -24 -37 -77 -37 -49 0 -75 15 -80 45 -3 18 3
20 49 23 29 2 56 9 63 17 8 10 31 15 63 15 28 0 48 3 44 6 -16 17 -94 20 -179
8 -51 -7 -96 -13 -100 -14 -17 0 -6 -41 18 -65 14 -14 22 -30 19 -35 -10 -16
-42 7 -57 41 l-13 31 -60 -7 c-33 -4 -163 -10 -290 -14 l-230 -6 2 -25 c1 -14
3 -34 5 -45 2 -14 -2 -19 -14 -17 -10 2 -18 -2 -18 -8 0 -5 6 -10 13 -10 6 0
22 -3 34 -6 18 -5 25 -1 33 20 8 21 16 26 43 26 29 0 33 -3 32 -26 -2 -34 -20
-44 -77 -44 -58 0 -94 13 -132 48 l-29 27 7 -36 c9 -50 -14 -58 -66 -24 -39
26 -40 26 -45 6 -10 -39 -40 -16 -34 27 2 19 -2 22 -29 22 -27 0 -30 -2 -20
-19 23 -44 -19 -34 -100 25 -23 16 -45 24 -65 22 -39 -4 -35 -22 7 -28 30 -5
34 -10 30 -40 -1 -5 -39 4 -84 21 -55 20 -97 29 -123 27 -42 -3 -41 -4 -28 45
4 12 0 17 -16 17 -11 0 -21 -4 -21 -9 0 -5 -7 -17 -15 -25 -21 -20 -81 -13
-203 25 -53 17 -115 29 -146 29 -48 0 -58 -4 -99 -41 -28 -24 -59 -65 -77
-103 -31 -62 -69 -191 -70 -232 0 -11 -16 -43 -35 -70 -42 -58 -65 -129 -65
-197 0 -41 -3 -48 -16 -43 -27 10 -53 -13 -64 -57 -13 -49 -100 -188 -115
-184 -5 2 -11 18 -13 35 -3 31 -4 32 -31 17 -15 -7 -52 -17 -82 -21 -65 -8
-116 -28 -146 -56 -20 -19 -35 -22 -118 -22 -88 -1 -95 0 -95 18 0 17 -5 15
-34 -13 -25 -24 -36 -29 -42 -20 -17 28 -23 101 -17 227 6 122 8 132 26 132
18 0 19 5 13 73 -4 46 1 120 12 207 16 120 17 135 3 139 -8 2 -17 -1 -18 -5
-9 -25 -21 -34 -38 -28 -15 6 -17 15 -12 62 7 63 19 81 42 62 8 -7 15 -19 15
-26 0 -16 9 -17 30 -4 10 6 17 34 21 87 4 50 15 99 32 138 14 33 39 125 54
205 26 132 31 145 50 144 18 -1 21 6 26 64 7 69 -3 102 -30 102 -28 0 1 21 39
29 19 4 34 14 36 23 3 15 -4 14 -61 -4 -62 -21 -66 -21 -92 -4 -31 20 -29 38
6 46 15 4 24 13 24 25 0 18 -8 20 -76 23 -65 2 -78 6 -82 21 -3 11 -18 22 -36
26 l-31 7 0 69 c0 62 -2 69 -20 69 -11 0 -29 -9 -40 -20 -20 -20 -20 -20 -20
53 0 96 -21 140 -70 147 -19 3 -36 11 -36 18 -1 6 -2 16 -3 21 -1 10 -55 31
-79 31 -14 0 -13 -13 3 -52 5 -14 2 -18 -13 -18 -28 0 -34 23 -16 66 8 20 13
39 10 41 -3 3 -25 0 -50 -7 -53 -14 -61 -11 -70 31 -8 43 -23 59 -56 59 -37 0
-55 22 -41 49 19 35 13 41 -44 41 -61 0 -70 10 -25 27 29 11 42 33 19 33 -6 0
-36 24 -67 54 -31 29 -67 58 -78 64 -14 7 -24 26 -29 49 -3 20 -22 67 -41 105
-19 37 -34 78 -34 91 0 13 -15 40 -32 59 -18 19 -48 71 -66 116 -19 45 -37 82
-42 82 -5 0 -64 -16 -132 -36 -358 -103 -569 -118 -743 -53 l-54 20 19 42 c11
23 20 59 20 79 0 34 4 39 35 52 39 17 48 51 16 61 -11 3 -31 15 -45 26 l-25
20 35 72 c36 76 41 105 23 139 -10 19 -9 20 15 14 31 -8 52 2 122 55 28 21 65
42 82 45 27 5 31 11 34 42 l3 36 135 41 c238 72 386 138 512 228 l77 55 17
-26 17 -26 25 29 c23 27 24 33 17 94 -5 36 -7 82 -5 101 4 46 4 73 -5 216 l-8
121 -32 -10 -32 -9 5 -78 c2 -44 2 -90 -2 -104 -10 -39 -34 -32 -41 12 -9 54
-13 60 -20 35 -8 -27 -23 -30 -32 -7 -3 8 4 25 17 39 22 23 22 28 15 157 -6
121 -5 138 14 188 26 69 26 68 -4 82 -32 14 -32 38 1 67 24 21 25 26 19 86 -6
51 -4 69 11 93 14 25 15 35 5 59 -9 22 -9 36 -1 59 7 16 23 85 36 154 29 151
28 154 -73 144 -71 -8 -86 7 -28 26 29 10 35 16 35 41 0 16 4 29 8 29 15 0 32
-24 32 -47 0 -56 55 4 63 70 6 45 6 47 -18 47 -15 0 -31 -10 -41 -25 -15 -23
-63 -38 -49 -15 10 16 -5 50 -20 50 -26 0 -28 47 -5 116 24 71 29 139 13 155
-7 7 -3 18 13 34 19 19 24 35 24 75 0 47 2 50 25 50 18 0 32 11 50 39 13 22
32 44 41 49 14 8 15 14 5 45 -14 40 -6 100 15 118 17 14 44 5 44 -16 0 -19 -2
-20 72 15 34 16 75 30 91 30 26 0 27 2 27 51 0 56 10 80 48 122 l26 27 -30 0
c-34 0 -61 -17 -66 -42 -2 -13 -7 -15 -18 -8 -12 8 -12 13 3 44 9 19 13 38 8
40 -14 9 39 108 60 113 15 4 18 11 12 27 -8 25 -8 41 2 124 7 55 10 62 30 62
12 0 36 5 53 11 28 10 31 14 35 67 2 31 10 81 18 111 13 48 18 56 57 74 48 24
51 30 21 43 -20 9 -18 13 34 92 30 46 60 97 67 115 20 55 25 61 92 112 67 52
108 102 108 132 -1 16 -2 16 -15 -1 -14 -19 -15 -18 -15 13 0 62 66 120 125
109 13 -3 22 -1 19 3 -3 5 -12 9 -20 9 -42 0 27 80 103 119 49 25 91 64 103
96 7 20 15 25 29 20 13 -4 33 7 66 35 25 22 53 40 61 40 10 0 14 14 14 56 0
47 -3 57 -20 61 -54 14 6 93 70 93 17 0 19 -3 10 -19 -16 -30 -13 -121 4 -121
21 0 33 20 43 69 8 43 11 46 68 68 33 13 61 27 63 32 1 4 8 16 15 25 11 15 16
13 50 -19 47 -44 97 -50 97 -10 0 14 5 25 10 25 6 0 10 4 10 10 0 5 -7 7 -15
4 -26 -10 -17 33 12 55 36 29 22 38 -20 12 -37 -22 -87 -28 -87 -10 0 30 42
75 110 116 98 61 148 108 156 150 5 28 10 33 35 33 22 0 34 8 48 31 17 28 24
31 73 32 33 1 65 9 81 20 40 26 68 76 62 108 -5 21 1 31 30 53 56 43 101 58
139 48 21 -6 40 -6 52 1 31 16 94 80 94 95 0 8 7 11 18 8 10 -4 38 1 62 9 23
8 51 15 62 15 11 0 40 17 66 39 64 52 87 63 132 60 25 -2 45 3 57 13 30 26 78
47 144 62 33 8 64 17 67 21 4 3 -6 28 -21 55 -15 26 -27 61 -27 78 0 16 -11
50 -25 73 -14 24 -32 65 -40 90 -21 62 -94 393 -89 399 3 2 7 -6 11 -18 5 -21
23 -31 23 -14 0 5 21 24 46 43 52 39 74 74 74 119 0 30 2 31 29 25 31 -7 62 5
97 36 16 15 26 17 52 9 32 -9 72 0 116 26 26 16 16 61 -34 157 -22 42 -40 78
-40 81 0 15 32 3 52 -19 29 -34 42 -32 23 5 -17 33 -43 50 -65 42 -11 -4 -10
1 4 16 14 16 17 31 14 60 l-6 39 48 -11 c50 -11 90 -39 90 -63 0 -19 -14 -16
-35 7 -23 25 -35 25 -35 0 0 -11 12 -27 26 -36 22 -15 32 -16 75 -6 64 15 69
15 69 -2 0 -8 13 -39 30 -71 36 -69 60 -146 60 -196 0 -41 26 -69 66 -69 18 0
22 -7 27 -52 4 -29 21 -98 39 -153 41 -130 45 -224 9 -273 -17 -25 -26 -31
-35 -22 -8 8 -3 24 17 59 31 55 34 83 12 101 -19 15 -18 16 -34 -37 -14 -51
-38 -67 -77 -53 -25 10 -26 9 -19 -17 4 -16 9 -47 12 -70 5 -39 7 -42 41 -48
23 -4 54 0 81 10 62 22 73 20 69 -12 -2 -21 -10 -29 -35 -35 -18 -5 -33 -12
-33 -16 0 -7 -77 -5 -117 4 -18 3 -23 11 -23 38 0 51 -8 65 -54 87 -22 12 -49
31 -58 42 l-16 22 -8 -29 c-5 -22 1 -45 27 -97 18 -38 36 -69 40 -69 4 0 10 8
14 18 5 11 12 -17 20 -78 11 -81 16 -97 39 -117 35 -29 82 -31 91 -3 8 27 -9
47 -46 55 -33 7 -41 41 -11 47 34 8 61 -14 77 -63 15 -43 35 -66 35 -39 0 5
10 14 21 21 25 13 39 -1 39 -38 0 -32 17 -28 35 7 18 34 5 76 -21 66 -15 -6
-20 9 -5 18 16 10 40 -5 61 -39 26 -42 25 -65 -1 -72 -16 -4 -17 -8 -7 -14 33
-21 63 -9 116 49 47 50 55 55 63 40 21 -37 99 -10 99 34 0 22 8 23 32 1 17
-16 20 -15 51 15 39 38 62 42 52 11 -12 -36 11 -41 101 -23 17 3 23 13 27 46
3 23 11 44 16 46 21 7 0 22 -29 22 -54 0 -53 70 2 147 17 24 35 43 39 43 16 0
20 -20 4 -26 -22 -9 -37 -41 -30 -64 5 -15 11 -17 34 -10 16 4 35 3 45 -2 26
-15 31 -3 16 41 -15 45 -8 61 25 61 13 0 31 10 39 22 18 25 36 16 20 -10 -6
-10 -9 -32 -6 -50 2 -17 1 -48 -2 -67 -6 -31 -11 -35 -37 -35 -34 0 -79 -38
-79 -67 0 -10 -3 -29 -7 -43 -6 -24 -5 -24 13 -9 10 9 42 23 69 31 l50 14 3
47 c2 32 7 47 17 47 8 0 28 13 45 30 22 21 30 39 30 64 0 27 11 48 51 96 l51
61 -16 40 c-9 22 -16 49 -16 62 -1 46 -17 -8 -23 -77 -4 -38 -9 -71 -12 -74
-13 -13 -19 14 -19 87 -1 60 -5 83 -18 98 -22 24 -23 55 -3 119 8 27 15 64 15
83 0 24 9 44 33 70 17 20 72 94 121 164 112 161 161 215 239 267 34 22 65 40
69 40 3 0 15 -19 26 -42z m-1988 -158 c0 -5 -7 -10 -16 -10 -8 0 -12 5 -9 10
3 6 10 10 16 10 5 0 9 -4 9 -10z m-85 -129 c-4 -13 1 -24 16 -35 29 -20 20
-30 -15 -17 -39 16 -35 -16 5 -33 19 -8 27 -16 20 -20 -20 -13 -12 -25 21 -34
45 -11 51 -42 8 -42 -17 0 -48 -11 -68 -25 -53 -36 -67 -33 -69 16 0 23 -10
53 -20 67 l-20 26 56 58 c57 60 77 72 66 39z m-1665 -621 c13 -8 13 -11 -2
-27 -21 -20 -45 -5 -35 21 7 18 16 20 37 6z m-102 -238 l3 -33 -25 16 c-33 22
-35 58 -3 53 17 -2 23 -11 25 -36z m160 -18 c35 -15 36 -16 18 -30 -25 -18
-47 -18 -71 0 -11 8 -16 19 -12 30 8 20 18 20 65 0z m2322 -34 c0 -5 -4 -10
-10 -10 -5 0 -10 5 -10 10 0 6 5 10 10 10 6 0 10 -4 10 -10z m-2785 -40 c-3
-5 -10 -10 -16 -10 -5 0 -9 5 -9 10 0 6 7 10 16 10 8 0 12 -4 9 -10z m2715
-29 c0 -6 -4 -13 -10 -16 -5 -3 -10 1 -10 9 0 9 5 16 10 16 6 0 10 -4 10 -9z
m-2526 -191 c18 -45 21 -107 6 -130 -7 -12 -12 -12 -28 4 -11 9 -22 31 -24 48
-6 36 10 118 22 118 4 0 15 -18 24 -40z m-99 -10 c0 -28 -4 -35 -20 -35 -13 0
-21 8 -23 23 -5 34 5 54 25 50 13 -2 18 -13 18 -38z m5923 -56 c28 -19 30 -54
2 -54 -13 0 -22 9 -26 25 -4 16 -13 25 -25 25 -10 0 -19 5 -19 10 0 15 43 12
68 -6z m-5730 -26 c-2 -15 -11 -24 -25 -26 -19 -3 -23 1 -23 22 0 21 5 26 26
26 21 0 25 -4 22 -22z m5682 -68 c0 -11 -30 -21 -41 -14 -15 9 10 34 27 27 8
-3 14 -9 14 -13z m-5369 -508 c-6 -11 -11 -32 -11 -46 0 -29 -14 -35 -24 -10
-10 26 -7 48 10 73 20 28 42 14 25 -17z m-814 -802 c18 0 33 -3 33 -7 0 -18
-36 -43 -62 -43 -26 0 -28 3 -28 37 0 29 3 34 12 25 7 -7 27 -12 45 -12z
m7583 -475 c0 -2 -15 1 -32 6 -18 5 -34 9 -36 9 -2 0 0 4 3 10 6 9 65 -13 65
-25z m-9183 -536 c16 -18 34 -28 44 -26 13 4 18 -4 21 -32 3 -20 8 -44 12 -53
6 -13 2 -19 -19 -24 -56 -14 -115 46 -115 117 0 59 17 64 57 18z m883 -238 c0
-5 -9 -11 -20 -14 -11 -3 -20 -1 -20 3 0 5 8 11 18 13 9 3 18 5 20 6 1 0 2 -3
2 -8z m25 -121 c-3 -5 -11 -10 -16 -10 -6 0 -7 5 -4 10 3 6 11 10 16 10 6 0 7
-4 4 -10z m65 0 c0 -5 -10 -10 -22 -10 -19 0 -20 2 -8 10 19 13 30 13 30 0z
m9064 -222 c9 -12 16 -33 16 -45 0 -20 -5 -23 -35 -23 -26 0 -39 6 -51 25 -16
24 -16 27 1 45 24 26 50 25 69 -2z m-879 -738 c-3 -5 -13 -10 -21 -10 -8 0
-12 5 -9 10 3 6 13 10 21 10 8 0 12 -4 9 -10z m-8539 -397 c-10 -10 -19 5 -10
18 6 11 8 11 12 0 2 -7 1 -15 -2 -18z m9538 -243 c5 -5 6 -16 3 -24 -5 -12
-20 -16 -57 -16 -28 0 -59 -4 -69 -10 -22 -11 -51 -79 -51 -116 0 -22 -2 -25
-15 -14 -16 13 -19 50 -9 124 6 38 10 46 28 46 11 0 44 7 71 14 49 14 81 12
99 -4z m-243 -20 c17 -9 19 -22 19 -104 0 -90 -1 -94 -20 -89 -12 3 -27 18
-35 33 -16 32 -42 60 -55 60 -20 0 -40 -35 -51 -90 -14 -71 -27 -85 -75 -77
-47 8 -72 31 -80 73 -8 42 -20 43 -42 5 l-16 -29 -28 20 c-30 21 -46 45 -59
90 -7 27 -5 31 28 45 20 8 89 19 154 23 82 6 130 14 160 28 51 24 73 26 100
12z m-9332 -97 c-25 -50 -25 -99 1 -113 32 -17 25 -48 -15 -64 -25 -11 -35
-21 -35 -37 l0 -22 -23 21 c-13 12 -29 22 -36 22 -10 0 -10 4 -3 13 5 6 22 48
36 91 25 77 57 126 82 126 8 0 6 -12 -7 -37z m8787 -60 c8 -31 1 -37 -25 -21
-31 19 -27 63 5 51 8 -3 17 -16 20 -30z m77 -10 c9 -20 15 -38 13 -40 -8 -8
-66 21 -66 33 0 15 20 43 30 44 3 0 13 -17 23 -37z m367 -18 c-7 -9 -15 -13
-17 -11 -7 7 7 26 19 26 6 0 6 -6 -2 -15z m114 -80 c-4 -8 -11 -15 -16 -15 -6
0 -5 6 2 15 7 8 14 15 16 15 2 0 1 -7 -2 -15z m51 6 c3 -5 1 -12 -5 -16 -5 -3
-10 1 -10 9 0 18 6 21 15 7z m-230 -41 c14 -23 -17 -40 -66 -38 -51 3 -64 18
-31 37 23 14 89 14 97 1z m-1047 -42 c26 -26 5 -116 -33 -148 -17 -14 -18 -13
-11 15 3 17 9 56 13 88 6 59 11 65 31 45z m-62 -215 c-10 -10 -19 5 -10 18 6
11 8 11 12 0 2 -7 1 -15 -2 -18z m-8082 -9 c9 -24 6 -75 -8 -112 l-12 -33 -19
21 c-20 23 -27 87 -13 123 9 21 44 22 52 1z m97 -54 c23 31 27 5 3 -28 -21
-30 -40 -28 -57 7 -19 38 -8 50 16 20 l19 -23 19 24z m19 -125 c0 -14 -4 -25
-10 -25 -5 0 -10 11 -10 25 0 14 5 25 10 25 6 0 10 -11 10 -25z m-210 -150 c0
-20 -5 -25 -25 -25 -18 0 -25 5 -25 18 0 24 8 32 32 32 13 0 18 -7 18 -25z
m6445 -1932 c-3 -48 -2 -48 -20 -33 -22 19 -20 70 4 70 15 0 18 -7 16 -37z
m-5435 -163 c0 -5 -7 -10 -16 -10 -8 0 -12 5 -9 10 3 6 10 10 16 10 5 0 9 -4
9 -10z m5160 -16 c0 -8 -4 -12 -10 -9 -5 3 -10 10 -10 16 0 5 5 9 10 9 6 0 10
-7 10 -16z m94 -20 c13 -35 7 -44 -31 -44 -37 0 -37 0 -15 16 12 8 22 22 22
30 0 19 16 18 24 -2z m-329 -104 c-3 -5 -13 -10 -21 -10 -8 0 -12 5 -9 10 3 6
13 10 21 10 8 0 12 -4 9 -10z m-160 -40 c21 -8 26 -16 23 -38 -2 -22 -9 -28
-33 -30 -42 -5 -105 16 -105 34 0 8 15 21 33 29 39 17 48 18 82 5z m270 -9
c-8 -13 -45 -15 -45 -2 0 5 10 11 23 13 27 5 31 3 22 -11z m-395 -71 c-14 -9
-40 -3 -40 9 0 16 14 20 33 10 15 -9 17 -13 7 -19z m264 9 c-3 -5 -10 -7 -15
-3 -5 3 -7 10 -3 15 3 5 10 7 15 3 5 -3 7 -10 3 -15z m-44 -28 c0 -22 -46 -41
-98 -41 -38 0 -54 -4 -59 -15 -15 -41 -173 -78 -173 -41 0 22 24 36 73 42 26
4 52 13 58 20 6 8 26 14 43 15 17 0 49 6 71 14 49 16 85 18 85 6z m-725 -51
c-3 -5 -10 -10 -16 -10 -5 0 -9 5 -9 10 0 6 7 10 16 10 8 0 12 -4 9 -10z
m-3905 -10 c0 -5 -4 -10 -10 -10 -5 0 -10 5 -10 10 0 6 5 10 10 10 6 0 10 -4
10 -10z m4205 -39 c3 -5 1 -13 -5 -16 -15 -9 -43 3 -35 15 8 13 32 13 40 1z
m-47 -86 c-16 -13 -47 -27 -72 -30 -59 -9 -70 -5 -53 19 14 18 65 33 122 35
l30 0 -27 -24z m-397 -24 c16 -16 29 -35 29 -43 0 -18 -173 -69 -232 -68 -40
0 -48 3 -48 19 0 27 20 40 81 51 74 14 107 29 114 51 9 26 22 24 56 -10z
m-220 -251 c6 0 7 -4 4 -10 -8 -13 -65 -13 -65 -1 0 12 21 21 38 15 8 -2 18
-4 23 -4z m-106 -10 c-3 -5 -11 -10 -16 -10 -6 0 -7 5 -4 10 3 6 11 10 16 10
6 0 7 -4 4 -10z m-485 -159 c0 -12 -20 -25 -27 -18 -7 7 6 27 18 27 5 0 9 -4
9 -9z m-430 -20 c0 -11 -25 -21 -51 -21 -19 0 -25 11 -12 23 10 10 63 8 63 -2z
m-250 -34 c0 -7 -7 -22 -16 -33 -14 -17 -15 -17 -10 -1 3 10 6 25 6 33 0 8 5
14 10 14 6 0 10 -6 10 -13z m-70 -15 c0 -13 -12 -22 -22 -16 -10 6 -1 24 13
24 5 0 9 -4 9 -8z m130 -32 c-14 -9 -40 -3 -40 9 0 16 14 20 33 10 15 -9 17
-13 7 -19z m-2500 -185 c26 -14 28 -18 18 -35 -7 -11 -23 -20 -35 -20 -20 0
-23 5 -23 35 0 40 1 40 40 20z m-20 -175 c0 -5 -4 -10 -10 -10 -5 0 -10 5 -10
10 0 6 5 10 10 10 6 0 10 -4 10 -10z m-20 -256 c0 -73 -1 -74 -21 -63 -15 8
-19 17 -15 32 4 12 9 43 13 69 9 71 23 47 23 -38z m0 -145 c0 -16 -4 -29 -10
-29 -5 0 -10 16 -10 36 0 21 4 33 10 29 6 -3 10 -19 10 -36z m6912 -111 c-7
-7 -12 -8 -12 -2 0 14 12 26 19 19 2 -3 -1 -11 -7 -17z"/>
<path d="M5440 12090 c-12 -8 -11 -10 8 -10 12 0 22 5 22 10 0 13 -11 13 -30
0z"/>
<path d="M5475 12040 c-3 -5 -2 -10 4 -10 5 0 13 5 16 10 3 6 2 10 -4 10 -5 0
-13 -4 -16 -10z"/>
<path d="M5495 11970 c-3 -5 1 -10 9 -10 9 0 16 5 16 10 0 6 -4 10 -9 10 -6 0
-13 -4 -16 -10z"/>
<path d="M6867 11800 c-28 -33 -22 -50 18 -50 33 0 35 2 35 35 0 41 -24 48
-53 15z"/>
<path d="M6920 11598 c0 -31 15 -68 22 -58 11 16 27 74 22 81 -3 5 -14 9 -25
9 -15 0 -19 -7 -19 -32z"/>
<path d="M5476 11611 c-4 -6 -3 -18 2 -27 6 -11 11 -13 16 -5 4 6 3 18 -2 27
-6 11 -11 13 -16 5z"/>
<path d="M7147 11566 c-3 -8 -18 -18 -32 -22 -20 -5 -25 -12 -25 -38 0 -18
-12 -52 -28 -77 -15 -24 -31 -49 -35 -56 -7 -12 17 -43 34 -43 5 0 9 8 9 18 0
9 18 44 40 77 48 72 65 118 52 141 -8 15 -10 15 -15 0z"/>
<path d="M5737 11533 c-4 -3 -7 -11 -7 -17 0 -6 5 -5 12 2 6 6 9 14 7 17 -3 3
-9 2 -12 -2z"/>
<path d="M5634 11500 c-6 -28 -24 -43 -24 -20 0 6 -4 10 -10 10 -19 0 -10 -45
11 -58 28 -18 40 -5 46 52 6 53 -14 66 -23 16z"/>
<path d="M5276 11494 c-21 -20 -21 -21 14 -39 39 -20 40 -20 40 20 0 28 -4 35
-19 35 -11 0 -27 -7 -35 -16z"/>
<path d="M7190 11488 c-11 -12 -20 -32 -20 -44 0 -20 4 -18 40 18 22 23 40 43
40 45 0 12 -43 -1 -60 -19z"/>
<path d="M5520 11473 c0 -10 4 -25 10 -33 5 -9 5 -19 -1 -26 -14 -17 8 -29 26
-14 19 16 19 40 -1 68 -18 26 -34 29 -34 5z"/>
<path d="M6836 11458 c-15 -35 -11 -58 9 -58 16 0 39 55 31 75 -9 24 -26 17
-40 -17z"/>
<path d="M6785 11389 c-4 -6 -5 -13 -2 -16 7 -7 27 6 27 18 0 12 -17 12 -25
-2z"/>
<path d="M5300 11376 c-10 -13 -9 -17 4 -22 22 -8 49 3 44 19 -7 18 -33 20
-48 3z"/>
<path d="M7129 11363 c-13 -16 -12 -17 4 -4 16 13 21 21 13 21 -2 0 -10 -8
-17 -17z"/>
<path d="M5435 11311 c-9 -16 15 -55 27 -43 12 12 7 44 -9 49 -6 2 -14 -1 -18
-6z"/>
<path d="M7040 11254 c0 -9 7 -14 17 -12 25 5 28 28 4 28 -12 0 -21 -6 -21
-16z"/>
<path d="M5405 11249 c-10 -15 3 -25 16 -12 7 7 7 13 1 17 -6 3 -14 1 -17 -5z"/>
<path d="M5445 11206 c-10 -15 -15 -40 -13 -63 3 -36 5 -38 36 -38 36 0 57
-22 41 -42 -24 -28 38 -86 67 -62 12 10 10 16 -15 44 -20 23 -34 56 -45 109
-14 62 -21 76 -36 76 -11 0 -27 -11 -35 -24z"/>
<path d="M5100 11160 c0 -5 5 -10 10 -10 6 0 10 5 10 10 0 6 -4 10 -10 10 -5
0 -10 -4 -10 -10z"/>
<path d="M5285 11060 c-3 -5 1 -10 9 -10 9 0 16 5 16 10 0 6 -4 10 -9 10 -6 0
-13 -4 -16 -10z"/>
<path d="M5154 11015 c-4 -10 -1 -21 7 -27 11 -7 11 -11 2 -15 -20 -8 -15 -23
7 -23 15 0 20 7 20 29 0 36 -26 62 -36 36z"/>
<path d="M4000 10330 c0 -5 5 -10 10 -10 6 0 10 5 10 10 0 6 -4 10 -10 10 -5
0 -10 -4 -10 -10z"/>
<path d="M6851 10278 c-59 -17 -107 -58 -67 -58 15 0 29 -27 21 -40 -2 -4 -26
-13 -52 -20 -102 -26 -121 -39 -85 -59 14 -9 11 -10 -18 -11 -50 0 -110 -19
-117 -36 -4 -11 -25 -14 -89 -14 l-83 0 5 -28 c4 -21 0 -34 -18 -52 -32 -33
-40 -57 -27 -82 8 -15 17 -18 35 -14 19 5 24 2 24 -12 0 -11 -9 -27 -20 -37
-24 -22 -25 -47 -4 -80 12 -19 14 -38 9 -84 -6 -52 -4 -61 12 -70 56 -29 101
-142 133 -331 30 -178 37 -200 61 -200 11 0 28 -4 38 -10 25 -13 51 -81 51
-130 0 -34 3 -40 21 -40 33 0 59 -19 59 -44 0 -13 20 -64 45 -112 25 -49 45
-97 45 -108 0 -10 -11 -27 -26 -38 -16 -13 -24 -28 -22 -42 2 -17 9 -21 36
-18 29 2 32 0 32 -26 0 -15 -5 -33 -12 -40 -9 -9 -1 -25 35 -70 25 -33 55 -85
66 -119 11 -34 52 -128 90 -209 38 -82 77 -176 86 -209 11 -36 31 -74 51 -97
42 -47 57 -76 85 -168 17 -59 32 -86 71 -129 27 -30 65 -85 83 -122 31 -60 38
-68 67 -71 28 -3 34 -8 44 -43 6 -23 41 -99 77 -170 66 -132 97 -216 97 -267
l0 -28 120 0 c138 0 205 12 254 45 l35 24 19 -26 c28 -39 64 -26 106 40 47 74
56 80 111 72 35 -6 50 -4 64 9 10 9 44 21 77 27 32 7 64 18 70 25 8 10 14 9
27 -7 9 -10 25 -19 34 -20 45 -3 81 4 111 21 l32 19 0 -54 c0 -60 13 -70 45
-35 17 19 18 19 35 -2 12 -16 27 -21 56 -20 32 1 44 9 77 47 62 72 86 51 52
-46 -16 -43 -13 -89 4 -89 5 0 11 12 14 28 3 15 18 45 32 67 17 24 23 41 16
43 -17 6 -13 27 7 45 27 25 34 22 64 -28 24 -39 32 -45 62 -45 39 0 44 6 66
70 11 31 20 44 30 41 8 -3 41 -6 73 -6 32 -1 63 -7 69 -13 8 -8 15 -7 24 6 12
15 15 15 24 2 5 -8 10 -32 10 -52 0 -20 4 -40 10 -43 14 -9 49 12 102 61 26
24 54 44 63 44 12 0 15 14 15 70 0 65 2 70 27 83 18 10 31 28 38 53 6 24 19
43 33 49 17 8 22 18 22 48 0 21 -5 48 -11 60 -9 16 -9 22 1 25 8 3 24 15 35
26 18 18 23 40 30 131 11 139 12 274 2 301 -6 17 -3 23 14 27 l21 6 -24 32
c-16 22 -19 33 -11 36 7 3 22 12 33 21 20 17 20 17 1 57 -21 42 -27 100 -23
223 2 70 3 72 27 72 25 0 25 1 25 92 0 80 -3 96 -24 127 -20 30 -25 53 -29
136 -7 119 -40 246 -103 400 -25 61 -50 133 -54 160 -5 28 -14 67 -20 89 -11
35 -14 38 -41 32 -16 -3 -29 -1 -29 4 0 5 -23 35 -50 65 -28 30 -50 62 -50 70
0 17 16 20 25 5 3 -5 11 -10 16 -10 6 0 2 11 -8 23 -96 123 -117 145 -141 150
-15 3 -65 31 -110 62 -46 31 -97 61 -114 67 -28 10 -33 8 -60 -21 -45 -48 -68
-39 -28 12 24 30 25 38 5 31 -24 -10 -104 35 -121 67 -20 41 -8 55 20 22 19
-22 31 -26 69 -26 59 1 117 22 110 40 -4 10 11 13 67 13 39 0 80 -5 91 -10 15
-8 19 -7 19 4 0 19 -15 29 -65 41 -26 6 -43 18 -50 33 -7 17 -18 22 -45 22
-19 0 -78 7 -130 15 -52 8 -98 15 -102 15 -5 0 -8 10 -8 23 0 20 -5 22 -67 24
-263 5 -322 10 -347 26 -63 42 -238 60 -308 32 -21 -8 -24 -25 -4 -25 7 0 19
-7 26 -15 11 -13 2 -15 -74 -15 -83 0 -87 -1 -96 -25 -11 -30 -30 -32 -53 -5
-11 14 -29 20 -55 20 -49 0 -75 19 -70 51 3 22 8 24 52 24 49 0 72 17 40 29
-41 16 -264 24 -454 16 -218 -8 -332 -4 -292 11 37 14 27 39 -15 39 -21 0 -92
9 -158 20 -130 21 -201 24 -254 8z m344 -108 c-3 -5 -14 -10 -23 -10 -15 0
-15 2 -2 10 20 13 33 13 25 0z m-415 -60 c0 -14 -7 -20 -23 -20 -16 0 -23 6
-23 20 0 14 7 20 23 20 16 0 23 -6 23 -20z m135 10 c-3 -5 -13 -10 -21 -10 -8
0 -12 5 -9 10 3 6 13 10 21 10 8 0 12 -4 9 -10z m1945 -125 c0 -18 -5 -25 -20
-25 -15 0 -20 7 -20 25 0 18 5 25 20 25 15 0 20 -7 20 -25z m232 -67 c-6 -6
-15 -8 -19 -4 -4 4 -1 11 7 16 19 12 27 3 12 -12z m-152 2 c-20 -13 -33 -13
-25 0 3 6 14 10 23 10 15 0 15 -2 2 -10z"/>
<path d="M8140 10120 c0 -5 5 -10 10 -10 6 0 10 5 10 10 0 6 -4 10 -10 10 -5
0 -10 -4 -10 -10z"/>
<path d="M3816 10001 c-4 -7 -5 -15 -2 -18 9 -9 19 4 14 18 -4 11 -6 11 -12 0z"/>
<path d="M3765 9960 c-3 -5 1 -10 9 -10 9 0 16 5 16 10 0 6 -4 10 -9 10 -6 0
-13 -4 -16 -10z"/>
<path d="M3860 9935 c0 -14 5 -25 10 -25 6 0 10 11 10 25 0 14 -4 25 -10 25
-5 0 -10 -11 -10 -25z"/>
<path d="M3580 9894 c0 -21 4 -25 23 -22 14 2 23 11 25 26 3 18 -1 22 -22 22
-21 0 -26 -5 -26 -26z"/>
<path d="M3775 9910 c-3 -6 1 -13 10 -16 19 -8 30 0 20 15 -8 14 -22 14 -30 1z"/>
<path d="M3620 9825 c-24 -25 -49 -45 -56 -45 -15 0 -39 -29 -30 -37 11 -12
84 17 115 46 29 27 44 81 23 81 -4 0 -28 -20 -52 -45z"/>
<path d="M3457 9812 c-31 -34 -17 -70 23 -57 17 5 50 51 50 70 0 13 -59 3 -73
-13z"/>
<path d="M3363 9703 c-10 -29 -3 -34 80 -60 24 -7 22 23 -3 44 -14 13 -17 20
-8 30 8 10 3 13 -25 13 -30 0 -37 -4 -44 -27z"/>
<path d="M3218 9592 c-25 -17 -38 -33 -38 -48 0 -21 3 -22 31 -14 69 20 100
59 62 78 -13 6 -29 1 -55 -16z"/>
<path d="M3440 9595 c-8 -9 -8 -15 -2 -15 12 0 26 19 19 26 -2 2 -10 -2 -17
-11z"/>
<path d="M4945 9474 c-8 -11 -17 -12 -42 -5 -30 9 -33 8 -33 -12 0 -12 -4 -28
-9 -36 -10 -16 -70 -17 -120 -2 -36 11 -51 7 -51 -13 0 -7 -14 -32 -31 -55
-40 -55 -95 -81 -152 -70 -48 8 -50 7 -74 -69 -19 -61 -46 -90 -66 -74 -19 16
-46 -3 -29 -20 22 -22 14 -38 -22 -38 -27 0 -43 -9 -78 -45 -38 -39 -50 -46
-88 -48 -25 -1 -60 2 -77 6 -30 8 -33 7 -33 -15 0 -34 -36 -64 -93 -79 -59
-14 -61 -39 -4 -52 27 -7 37 -14 37 -28 0 -15 -7 -19 -31 -19 -22 0 -43 -11
-70 -35 -43 -38 -66 -46 -54 -17 17 40 16 53 -3 86 l-20 34 26 25 c43 44 20
39 -39 -7 -66 -52 -116 -79 -129 -71 -5 3 4 30 21 61 18 32 28 61 25 71 -5 12
-22 -1 -76 -59 -38 -42 -92 -90 -119 -108 -28 -17 -53 -39 -56 -49 -10 -32
-59 -89 -122 -141 -35 -28 -63 -60 -63 -69 0 -10 -13 -35 -30 -57 -16 -21 -33
-56 -36 -77 -4 -21 -15 -42 -24 -47 -10 -5 -35 -32 -55 -60 -25 -34 -47 -53
-66 -57 -34 -7 -38 -12 -68 -86 -20 -49 -22 -63 -12 -84 9 -20 9 -28 -3 -37
-22 -17 -68 -126 -53 -126 7 0 25 -14 40 -31 28 -32 28 -32 12 -79 -9 -27 -47
-100 -85 -163 -38 -64 -77 -139 -87 -168 -15 -44 -24 -55 -55 -68 -33 -14 -38
-20 -38 -49 0 -18 -16 -88 -36 -155 -33 -116 -36 -134 -45 -342 -14 -332 -27
-514 -43 -577 -12 -53 -12 -59 5 -74 20 -18 36 -80 25 -92 -4 -4 -16 4 -27 18
l-20 25 4 -145 c5 -161 21 -226 65 -260 19 -16 23 -23 14 -32 -15 -15 -16 -58
-1 -58 6 0 24 11 41 25 22 19 34 23 47 15 16 -8 18 -5 17 28 -1 50 30 56 62
12 14 -19 31 -30 47 -30 34 0 40 18 17 50 -12 15 -18 30 -15 34 13 13 48 5 70
-16 23 -22 47 -18 25 4 -16 16 -15 48 1 50 6 0 53 2 104 2 82 1 92 -1 97 -18
4 -15 11 -17 38 -12 18 4 48 9 66 13 24 4 32 10 32 27 0 32 26 64 70 86 66 33
142 20 91 -16 -12 -8 -21 -21 -21 -28 0 -11 7 -11 41 1 29 9 60 12 101 7 75
-9 80 -2 72 91 -6 68 -5 70 18 71 12 1 37 7 55 15 18 7 34 11 36 9 2 -3 2 -24
-1 -47 -4 -45 -22 -60 -22 -20 0 12 -5 29 -10 37 -7 11 -10 0 -10 -37 0 -59
-4 -57 128 -67 l62 -4 0 78 0 79 33 3 32 3 47 184 c44 171 84 277 121 326 14
18 13 20 -16 30 -44 14 -49 59 -12 103 21 25 24 35 16 51 -19 35 -12 97 20
171 23 55 29 81 24 106 -6 33 -5 34 25 34 32 0 32 0 25 43 -4 23 -14 50 -22
59 -10 12 -13 27 -8 50 8 37 89 210 130 276 19 31 22 42 12 42 -32 0 -37 24
-28 145 9 113 11 121 36 141 23 18 25 24 16 43 -11 19 -8 24 24 43 36 20 36
22 30 68 -5 36 -3 49 10 60 12 10 14 23 10 54 -6 41 4 79 69 261 13 39 28 87
31 108 4 28 11 37 25 37 16 0 20 7 20 33 0 18 -5 38 -12 45 -9 9 -6 12 15 12
30 0 32 7 16 44 -10 22 -4 40 54 158 36 73 82 179 103 236 37 101 38 102 70
102 30 0 33 3 39 41 4 22 29 83 56 136 46 89 60 145 41 157 -4 2 -12 -2 -17
-10z m-875 -579 c0 -20 -5 -25 -25 -25 -18 0 -25 5 -25 18 0 24 8 32 32 32 13
0 18 -7 18 -25z m-285 -85 c-3 -5 -15 -10 -26 -10 -11 0 -17 5 -14 10 3 6 15
10 26 10 11 0 17 -4 14 -10z m-75 -96 c0 -27 -20 -54 -40 -54 -18 0 -18 1 3
35 24 37 37 44 37 19z m55 -44 c-3 -5 -11 -10 -16 -10 -6 0 -7 5 -4 10 3 6 11
10 16 10 6 0 7 -4 4 -10z m-595 -461 c-14 -26 -79 -54 -92 -41 -7 7 4 20 30
37 22 15 43 34 47 43 6 16 7 16 16 0 7 -12 6 -25 -1 -39z m220 -9 c0 -5 -4
-10 -10 -10 -5 0 -10 5 -10 10 0 6 5 10 10 10 6 0 10 -4 10 -10z m-186 -209
c3 -4 -8 -20 -24 -34 -36 -32 -52 -16 -18 18 26 26 34 29 42 16z m-134 -30 c0
-20 -18 -31 -51 -31 -11 0 -23 -10 -28 -22 -5 -14 -10 -17 -15 -10 -15 25 38
82 76 82 11 0 18 -7 18 -19z m30 -61 c13 -8 13 -10 -2 -10 -9 0 -26 -14 -38
-31 -13 -17 -29 -29 -39 -27 -26 5 -18 31 18 55 38 26 40 26 61 13z m-480
-1910 c0 -16 -4 -32 -10 -35 -6 -4 -10 10 -10 35 0 25 4 39 10 35 6 -3 10 -19
10 -35z"/>
<path d="M3035 9450 c-8 -12 17 -23 41 -18 10 1 19 9 22 16 5 15 -54 17 -63 2z"/>
<path d="M4620 9406 c0 -48 21 -73 34 -41 7 19 -10 65 -24 65 -5 0 -10 -11
-10 -24z"/>
<path d="M3765 9000 c-3 -5 1 -10 9 -10 9 0 16 5 16 10 0 6 -4 10 -9 10 -6 0
-13 -4 -16 -10z"/>
<path d="M2505 8670 c-3 -5 -2 -10 4 -10 5 0 13 5 16 10 3 6 2 10 -4 10 -5 0
-13 -4 -16 -10z"/>
<path d="M5746 8308 c-3 -13 -10 -50 -16 -83 -11 -63 -28 -85 -67 -85 -21 0
-23 -4 -23 -54 0 -53 -1 -55 -40 -77 -57 -32 -90 -103 -97 -208 -4 -58 -10
-81 -19 -81 -8 0 -20 -16 -28 -35 -8 -19 -20 -35 -25 -35 -6 0 -11 -18 -11
-39 0 -28 -16 -72 -56 -149 -45 -91 -53 -114 -44 -129 8 -13 8 -32 -3 -73 -13
-53 -16 -56 -60 -70 -45 -15 -47 -17 -72 -85 -13 -38 -43 -132 -65 -208 -23
-76 -48 -153 -56 -172 -9 -22 -12 -49 -8 -75 10 -63 -4 -127 -37 -164 -29 -34
-36 -60 -20 -84 13 -22 395 -13 439 10 32 16 35 16 60 0 20 -13 49 -17 128
-17 l102 0 6 38 c13 82 74 93 148 27 24 -20 52 -40 64 -44 29 -9 66 23 104 89
17 30 39 59 48 64 9 4 80 11 157 14 80 4 161 13 190 21 28 9 51 16 53 16 2 0
0 -9 -3 -20 -5 -15 -2 -20 13 -20 11 0 25 7 33 16 9 11 26 15 63 12 l51 -3 -2
31 c-3 30 -2 31 62 43 49 9 71 9 86 0 13 -7 19 -7 15 -1 -3 6 -13 62 -20 124
-20 155 -26 168 -74 168 -51 0 -69 22 -83 96 -16 93 -17 94 -54 94 -60 0 -82
17 -89 68 -6 43 -80 197 -114 235 -10 11 -27 17 -46 15 -28 -3 -31 0 -66 87
-41 102 -56 132 -78 157 -8 10 -18 39 -23 65 -6 30 -28 74 -59 121 -28 41 -50
82 -50 92 0 26 -14 32 -44 19 -40 -18 -56 2 -56 70 0 52 -2 57 -29 69 -16 7
-55 44 -86 82 -67 84 -92 101 -99 68z"/>
<path d="M6242 7698 c5 -32 48 -33 48 -1 0 18 -5 23 -26 23 -20 0 -25 -4 -22
-22z"/>
<path d="M6293 7564 c7 -39 24 -67 38 -58 14 8 11 42 -7 69 -24 36 -38 31 -31
-11z"/>
<path d="M1940 7520 c0 -5 4 -10 9 -10 6 0 13 5 16 10 3 6 -1 10 -9 10 -9 0
-16 -4 -16 -10z"/>
<path d="M1970 7455 c-8 -9 -8 -15 -2 -15 12 0 26 19 19 26 -2 2 -10 -2 -17
-11z"/>
<path d="M11025 7030 c3 -5 13 -10 21 -10 8 0 12 5 9 10 -3 6 -13 10 -21 10
-8 0 -12 -4 -9 -10z"/>
<path d="M2033 6993 c-3 -10 -15 -28 -25 -40 -20 -21 -20 -21 1 -28 26 -8 26
-12 1 -77 -24 -63 -25 -104 -5 -145 15 -29 14 -34 -10 -79 -28 -53 -32 -99
-11 -148 13 -31 49 -66 68 -66 16 0 7 27 -16 49 -23 22 -23 24 -9 69 20 64 21
178 0 224 -9 22 -12 40 -6 43 5 4 9 18 9 32 0 15 8 35 17 45 14 16 15 25 6 61
-8 27 -8 46 -2 53 7 8 6 14 -1 19 -5 3 -13 -2 -17 -12z"/>
<path d="M9330 6931 c0 -6 5 -13 10 -16 6 -3 10 1 10 9 0 9 -4 16 -10 16 -5 0
-10 -4 -10 -9z"/>
<path d="M4188 6923 c-10 -2 -18 -8 -18 -13 0 -4 9 -6 20 -3 11 3 20 9 20 14
0 5 -1 8 -2 8 -2 -1 -11 -3 -20 -6z"/>
<path d="M8685 6890 c-3 -5 1 -10 9 -10 8 0 18 5 21 10 3 6 -1 10 -9 10 -8 0
-18 -4 -21 -10z"/>
<path d="M8500 6870 c-12 -8 -11 -10 8 -10 12 0 22 5 22 10 0 13 -11 13 -30 0z"/>
<path d="M9190 6855 c0 -20 26 -47 60 -65 56 -28 62 -26 58 23 l-3 42 -57 3
c-32 2 -58 0 -58 -3z"/>
<path d="M8881 6779 c-6 -18 -11 -34 -11 -35 0 -2 20 -4 45 -4 45 0 45 0 45
35 0 33 -2 35 -34 35 -29 0 -36 -4 -45 -31z"/>
<path d="M9197 6783 c-4 -3 -7 -11 -7 -17 0 -6 5 -5 12 2 6 6 9 14 7 17 -3 3
-9 2 -12 -2z"/>
<path d="M9413 6745 c-7 -8 -13 -24 -13 -35 0 -32 54 -24 58 9 2 13 -2 28 -10
32 -17 11 -21 11 -35 -6z"/>
<path d="M9317 6713 c-4 -3 -7 -11 -7 -17 0 -6 5 -5 12 2 6 6 9 14 7 17 -3 3
-9 2 -12 -2z"/>
<path d="M10907 6643 c-4 -3 -7 -11 -7 -17 0 -6 5 -5 12 2 6 6 9 14 7 17 -3 3
-9 2 -12 -2z"/>
<path d="M6805 6590 c-3 -5 1 -10 9 -10 9 0 16 5 16 10 0 6 -4 10 -9 10 -6 0
-13 -4 -16 -10z"/>
<path d="M10568 6589 c-26 -14 -22 -39 5 -39 25 0 67 26 67 41 0 12 -50 11
-72 -2z"/>
<path d="M8960 6553 c-34 -13 -40 -46 -7 -38 12 3 41 2 64 -3 39 -9 73 -1 73
17 0 5 -20 14 -44 20 -48 12 -63 13 -86 4z"/>
<path d="M6855 6540 c-3 -5 -2 -10 4 -10 5 0 13 5 16 10 3 6 2 10 -4 10 -5 0
-13 -4 -16 -10z"/>
<path d="M6627 6523 c-4 -3 -7 -11 -7 -17 0 -6 5 -5 12 2 6 6 9 14 7 17 -3 3
-9 2 -12 -2z"/>
<path d="M9130 6520 c-12 -8 -11 -10 8 -10 12 0 22 5 22 10 0 13 -11 13 -30 0z"/>
<path d="M10437 6523 c-4 -3 -7 -11 -7 -17 0 -6 5 -5 12 2 6 6 9 14 7 17 -3 3
-9 2 -12 -2z"/>
<path d="M6320 6491 c0 -5 9 -7 20 -4 11 3 20 7 20 9 0 2 -9 4 -20 4 -11 0
-20 -4 -20 -9z"/>
<path d="M6776 6485 c-20 -20 -20 -34 -1 -41 20 -8 65 22 65 42 0 14 -3 14
-16 3 -12 -10 -17 -10 -23 0 -6 10 -12 9 -25 -4z"/>
<path d="M8845 6490 c-8 -13 5 -13 25 0 13 8 13 10 -2 10 -9 0 -20 -4 -23 -10z"/>
<path d="M8637 6403 c-15 -19 -27 -23 -70 -23 -66 0 -105 -30 -56 -43 16 -4
19 -10 14 -28 -6 -18 -4 -21 9 -16 9 4 23 10 31 13 24 10 18 -23 -7 -40 -27
-19 -82 -21 -128 -4 -25 8 -35 8 -38 0 -2 -6 -12 -22 -23 -36 -19 -24 -21 -24
-54 -10 -47 19 -54 18 -65 -11 -6 -15 -20 -27 -37 -31 -55 -12 -108 -36 -137
-60 l-28 -25 20 -22 c11 -12 26 -42 32 -67 17 -62 39 -104 113 -208 35 -50 69
-104 76 -120 11 -25 20 -31 49 -34 l35 -3 138 -310 c102 -229 138 -321 139
-350 0 -40 22 -85 41 -85 5 0 14 12 19 26 6 14 49 66 95 114 83 87 124 152
125 198 0 29 -26 39 -49 18 -18 -17 -41 -21 -41 -8 1 21 23 36 62 41 34 5 43
10 43 26 0 16 -6 19 -28 17 -25 -3 -28 0 -25 20 3 20 8 23 46 21 23 -1 42 2
42 6 0 4 -7 28 -16 54 -9 26 -14 52 -12 59 3 7 36 28 74 48 50 25 70 41 72 57
3 17 -3 24 -22 29 -29 7 -35 34 -11 54 9 7 20 33 27 57 6 25 17 47 25 50 21 8
25 -2 12 -31 -7 -14 -10 -28 -8 -31 6 -5 146 29 155 38 3 3 10 39 15 79 10 83
21 127 74 286 29 86 42 112 55 112 18 0 30 19 30 46 0 10 -12 14 -41 14 -35 0
-47 6 -75 36 -19 19 -34 31 -34 25 0 -7 -25 -11 -62 -11 -59 0 -64 -2 -80 -29
-13 -24 -25 -31 -64 -37 -44 -6 -49 -5 -69 20 -21 27 -44 33 -61 16 -9 -9
-146 -63 -148 -58 -20 48 -50 85 -100 125 l-62 49 -17 -23z m3 -53 c-19 -13
-30 -13 -30 0 0 6 10 10 23 10 18 0 19 -2 7 -10z m89 -29 c20 -13 5 -29 -38
-42 -29 -9 -43 -8 -61 1 l-24 13 23 18 c24 20 76 25 100 10z m-264 -111 c-3
-5 -10 -10 -16 -10 -5 0 -9 5 -9 10 0 6 7 10 16 10 8 0 12 -4 9 -10z m391
-1037 c-10 -10 -19 5 -10 18 6 11 8 11 12 0 2 -7 1 -15 -2 -18z"/>
<path d="M8960 6385 c0 -45 0 -45 35 -45 22 0 35 5 35 13 0 18 -28 55 -51 67
-17 10 -19 7 -19 -35z"/>
<path d="M8750 6400 c0 -5 11 -10 24 -10 14 0 30 -10 40 -25 19 -29 41 -33 49
-7 2 9 8 25 12 35 6 15 0 17 -59 17 -37 0 -66 -4 -66 -10z"/>
<path d="M9238 6393 c-56 -22 -48 -37 14 -29 51 7 78 20 78 37 0 14 -51 10
-92 -8z"/>
<path d="M5240 6345 c0 -23 4 -25 44 -25 48 0 60 8 50 34 -4 11 -19 16 -50 16
-40 0 -44 -2 -44 -25z"/>
<path d="M1970 6343 c0 -10 4 -24 9 -32 6 -9 2 -26 -11 -48 -13 -22 -18 -43
-15 -61 4 -21 1 -31 -14 -40 -23 -14 -25 -45 -4 -62 11 -9 21 -9 43 1 29 12
29 15 35 107 6 98 -5 152 -29 152 -8 0 -14 -8 -14 -17z"/>
<path d="M8435 6310 c-19 -8 -19 -9 3 -9 12 -1 22 4 22 9 0 6 -1 10 -2 9 -2 0
-12 -4 -23 -9z"/>
<path d="M9077 6313 c-12 -12 -7 -22 8 -17 8 4 15 10 15 15 0 11 -14 12 -23 2z"/>
<path d="M2066 6291 c-4 -7 -5 -15 -2 -18 9 -9 19 4 14 18 -4 11 -6 11 -12 0z"/>
<path d="M2035 6241 c-6 -11 9 -23 19 -14 9 9 7 23 -3 23 -6 0 -12 -4 -16 -9z"/>
<path d="M2067 6173 c-4 -3 -7 -11 -7 -17 0 -6 5 -5 12 2 6 6 9 14 7 17 -3 3
-9 2 -12 -2z"/>
<path d="M2060 5930 c0 -5 5 -10 10 -10 6 0 10 5 10 10 0 6 -4 10 -10 10 -5 0
-10 -4 -10 -10z"/>
<path d="M6877 5934 c-3 -3 -56 -10 -117 -15 -61 -5 -170 -23 -243 -41 -104
-25 -157 -32 -247 -33 -71 -1 -125 -7 -139 -15 -42 -22 -152 -49 -322 -80 -91
-16 -184 -36 -206 -44 -23 -8 -112 -29 -200 -46 -198 -40 -323 -71 -437 -110
-77 -26 -105 -30 -191 -30 l-102 0 -36 -77 c-49 -110 -72 -194 -107 -394 -21
-124 -46 -223 -86 -344 -65 -200 -119 -406 -129 -490 -4 -37 -16 -74 -31 -98
-28 -43 -31 -50 -85 -200 l-38 -107 36 -33 c20 -17 53 -48 75 -68 21 -20 52
-42 69 -49 16 -7 53 -39 80 -71 47 -54 57 -60 144 -88 219 -71 498 -133 768
-168 114 -15 205 -17 666 -15 593 2 644 6 879 68 131 34 495 158 519 177 7 5
17 26 23 46 9 33 14 37 60 48 67 16 318 137 326 157 4 9 44 43 89 76 89 64
132 108 141 143 3 13 -16 81 -46 167 -28 80 -64 192 -79 250 -23 84 -39 121
-82 187 -85 129 -152 244 -170 289 -8 22 -34 67 -56 100 -57 84 -82 137 -90
189 -4 34 -10 45 -23 45 -10 0 -28 9 -42 19 -30 24 -82 126 -74 146 8 21 -12
62 -40 80 -12 8 -25 29 -29 47 -18 90 -26 109 -51 118 -23 9 -25 13 -19 54 6
37 4 45 -12 50 -16 5 -74 103 -87 149 -5 15 -20 17 -129 17 -68 0 -126 -3
-130 -6z"/>
<path d="M3340 5850 c0 -15 7 -20 25 -20 18 0 25 5 25 20 0 15 -7 20 -25 20
-18 0 -25 -5 -25 -20z"/>
<path d="M3533 5544 c-29 -7 -47 -30 -39 -50 5 -13 9 -14 20 -4 18 14 78 9 84
-7 2 -9 -7 -13 -27 -13 -50 0 -133 -43 -178 -93 -49 -53 -53 -67 -19 -67 38 0
54 10 77 47 18 29 23 33 31 19 5 -9 22 -16 38 -16 20 0 30 -5 30 -14 0 -10
-46 -30 -142 -60 -159 -51 -173 -58 -165 -78 9 -26 -6 -34 -88 -46 -152 -23
-259 -100 -272 -198 -4 -34 1 -48 41 -109 25 -38 46 -77 46 -86 0 -9 40 -49
89 -88 115 -91 291 -277 291 -306 0 -27 39 -65 67 -65 18 0 22 8 28 68 16 151
57 276 181 549 41 89 88 204 106 256 31 92 32 94 15 129 -9 20 -17 55 -17 78
0 23 -5 50 -10 61 -9 16 -7 19 8 19 27 0 49 27 34 42 -9 9 -15 9 -24 0 -18
-18 -38 -15 -56 8 -13 15 -32 22 -72 25 -30 2 -65 1 -77 -1z m137 -149 c0 -25
-25 -47 -67 -60 -39 -11 -28 24 12 41 19 8 35 21 35 29 0 8 5 15 10 15 6 0 10
-11 10 -25z"/>
<path d="M3285 5370 c-3 -5 1 -10 9 -10 8 0 18 5 21 10 3 6 -1 10 -9 10 -8 0
-18 -4 -21 -10z"/>
<path d="M3184 5299 c-3 -6 -1 -16 4 -21 13 -13 45 8 36 23 -7 12 -31 11 -40
-2z"/>
<path d="M2130 4140 c0 -5 5 -10 10 -10 6 0 10 5 10 10 0 6 -4 10 -10 10 -5 0
-10 -4 -10 -10z"/>
<path d="M2226 4092 c-3 -3 -6 -14 -6 -24 0 -13 7 -18 25 -18 18 0 25 5 25 19
0 18 -33 35 -44 23z"/>
<path d="M2707 3869 c-16 -10 -8 -21 71 -103 75 -78 93 -103 108 -150 14 -45
22 -56 39 -56 12 0 32 -11 44 -24 13 -14 35 -26 50 -28 20 -2 28 -11 36 -35 8
-28 14 -33 41 -33 18 0 44 -4 57 -9 20 -8 27 -6 31 5 12 32 5 54 -34 99 -30
35 -40 55 -40 81 l0 34 -54 0 c-45 0 -54 3 -59 20 -3 11 -17 24 -31 30 -17 6
-26 16 -24 27 2 11 -7 19 -28 25 -18 4 -51 27 -74 50 -46 46 -89 78 -105 78
-5 -1 -18 -5 -28 -11z"/>
<path d="M2394 3845 c-4 -9 -4 -18 -2 -21 9 -8 39 8 35 19 -6 18 -27 20 -33 2z"/>
<path d="M2696 3732 c-5 -8 45 -52 59 -52 14 0 2 31 -17 44 -25 18 -35 20 -42
8z"/>
<path d="M2857 3530 c6 -23 31 -46 40 -36 3 3 1 17 -5 31 -14 30 -43 35 -35 5z"/>
<path d="M3010 3431 c-17 -12 -16 -13 35 -40 47 -25 85 -28 85 -6 0 31 -90 66
-120 46z"/>
<path d="M6360 3240 c0 -5 4 -10 9 -10 6 0 13 5 16 10 3 6 -1 10 -9 10 -9 0
-16 -4 -16 -10z"/>
<path d="M5265 3001 c-3 -5 -1 -12 5 -16 5 -3 10 1 10 9 0 18 -6 21 -15 7z"/>
<path d="M5364 2959 c-3 -6 -2 -15 4 -21 12 -12 43 -7 43 7 1 14 -39 26 -47
14z"/>
<path d="M5540 2910 c0 -5 4 -10 9 -10 6 0 13 5 16 10 3 6 -1 10 -9 10 -9 0
-16 -4 -16 -10z"/>
<path d="M6085 2779 c-10 -15 3 -25 16 -12 7 7 7 13 1 17 -6 3 -14 1 -17 -5z"/>
<path d="M4635 2579 c-10 -15 1 -22 24 -14 12 3 19 11 16 16 -8 12 -32 11 -40
-2z"/>
<path d="M4746 2568 c-16 -13 -11 -16 59 -37 71 -20 79 -21 101 -6 31 20 31
45 0 45 -12 0 -50 3 -82 6 -43 4 -64 2 -78 -8z"/>
<path d="M5735 2540 c-3 -5 3 -10 14 -10 12 0 21 5 21 10 0 6 -6 10 -14 10 -8
0 -18 -4 -21 -10z"/>
<path d="M3020 1860 c0 -5 5 -10 10 -10 6 0 10 5 10 10 0 6 -4 10 -10 10 -5 0
-10 -4 -10 -10z"/>
<path d="M9705 1790 c-3 -5 -2 -10 4 -10 5 0 13 5 16 10 3 6 2 10 -4 10 -5 0
-13 -4 -16 -10z"/>
<path d="M2907 1703 c-4 -3 -7 -11 -7 -17 0 -6 5 -5 12 2 6 6 9 14 7 17 -3 3
-9 2 -12 -2z"/>
<path d="M9737 1423 c-4 -3 -7 -11 -7 -17 0 -6 5 -5 12 2 6 6 9 14 7 17 -3 3
-9 2 -12 -2z"/>
</g>
</svg>
